<svg xmlns="http://www.w3.org/2000/svg" viewBox="0 0 128 32" width="128" height="32" role="img">
  <title>Forbes</title>
  <path fill="#999" d="M72.531 10.431c0-3.734.064-7.211.258-10.431l-9.851 1.867v.901l.966.129c.708.064 1.159.322 1.417.708.258.451.451 1.095.579 2.06.129 1.867.258 6.117.193 12.813 0 6.632-.064 10.817-.193 12.427 3.541.773 6.309 1.095 8.37 1.095 3.863 0 6.889-1.095 9.078-3.348 2.189-2.189 3.348-5.28 3.348-9.078 0-3.026-.837-5.537-2.511-7.533-1.674-1.996-3.799-2.962-6.31-2.962-1.674-.001-3.412.45-5.344 1.352zm.193 19.831c-.129-2.06-.258-8.241-.258-18.35.579-.193 1.352-.322 2.318-.322 1.545 0 2.769.773 3.67 2.382s1.352 3.541 1.352 5.988c0 3.026-.515 5.473-1.545 7.533-1.03 1.996-2.318 3.026-3.928 3.026-.514-.129-1.029-.193-1.609-.257zM25.98.644H.225v1.288l1.352.128c1.03.193 1.738.579 2.189 1.159.451.644.709 1.674.773 3.091.515 6.954.515 13.457 0 19.445-.129 1.417-.386 2.447-.773 3.091-.451.644-1.159 1.03-2.189 1.159l-1.352.193v1.288h16.612v-1.288l-1.738-.129a3.154 3.154 0 0 1-2.189-1.159c-.451-.644-.708-1.674-.773-3.091a118.353 118.353 0 0 1-.322-8.821l3.477.064c1.867.064 3.155 1.481 3.799 4.314h1.288V10.881h-1.288c-.644 2.769-1.867 4.185-3.799 4.249l-3.477.064c0-5.795.129-9.915.322-12.427h5.087c3.606 0 6.052 2.318 7.469 6.954l1.545-.451L25.98.644zm-3.026 19.831c0 3.348.966 6.117 2.833 8.306C27.654 30.97 30.423 32 33.899 32c3.477 0 6.31-1.095 8.37-3.348 2.06-2.189 3.026-4.958 3.026-8.306s-.966-6.117-2.833-8.306c-1.867-2.189-4.636-3.219-8.113-3.219s-6.31 1.095-8.37 3.348c-2.059 2.189-3.025 4.958-3.025 8.306zm14.358-7.34c.773 1.867 1.095 4.314 1.095 7.276 0 6.825-1.417 10.173-4.185 10.173-1.417 0-2.511-.966-3.284-2.897-.773-1.932-1.095-4.378-1.095-7.276 0-6.761 1.417-10.109 4.185-10.109 1.417-.065 2.511.901 3.284 2.833zm54.406 15.646C93.843 30.905 96.547 32 99.767 32c1.996 0 3.734-.386 5.28-1.223 1.545-.773 2.769-1.738 3.606-2.897l-.644-.773c-1.416 1.095-3.026 1.61-4.893 1.61-2.575 0-4.571-.837-5.924-2.575-1.416-1.738-2.06-3.928-1.932-6.761h13.779c0-3.091-.773-5.602-2.382-7.598-1.61-1.932-3.863-2.897-6.761-2.897-3.606 0-6.374 1.159-8.37 3.412s-2.962 5.022-2.962 8.306c-.001 3.348 1.03 6.052 3.154 8.177zm4.765-16.161c.708-1.545 1.61-2.318 2.833-2.318 1.932 0 2.897 2.447 2.897 7.404l-6.825.129c.065-1.932.387-3.67 1.095-5.215zm29.875-2.576c-1.738-.773-3.928-1.223-6.567-1.223-2.704 0-4.829.708-6.439 2.06s-2.447 3.026-2.447 5.022c0 1.738.515 3.091 1.481 4.056.966.966 2.511 1.803 4.507 2.511 1.803.644 3.091 1.288 3.734 1.867.644.644 1.03 1.352 1.03 2.318 0 .901-.322 1.738-1.03 2.382-.644.708-1.545 1.03-2.704 1.03-2.833 0-4.958-2.06-6.439-6.181l-1.095.322.258 6.439c2.318.901 4.893 1.352 7.726 1.352 2.962 0 5.215-.644 6.889-1.996 1.674-1.288 2.511-3.155 2.511-5.473 0-1.545-.386-2.833-1.223-3.799-.837-.966-2.189-1.803-4.121-2.575-2.125-.773-3.606-1.481-4.378-2.125-.773-.644-1.159-1.417-1.159-2.382s.258-1.738.837-2.382c.579-.644 1.288-.901 2.189-.901 2.575 0 4.443 1.867 5.602 5.537l1.095-.322-.257-5.537zm-61.939-.579c-.901-.451-1.867-.644-2.962-.644-1.095 0-2.189.451-3.412 1.352-1.223.901-2.125 2.125-2.833 3.799l.064-5.151-9.787 1.932v.901l.966.064c1.223.129 1.932 1.095 2.06 2.833.386 3.992.386 8.241 0 12.748-.129 1.738-.837 2.64-2.06 2.833l-.966.129v1.223h13.65v-1.223l-1.739-.128c-1.223-.129-1.932-1.095-2.06-2.833a65.795 65.795 0 0 1-.129-11.847c.386-.644 1.223-1.03 2.511-1.159s2.769.258 4.314 1.159l2.383-5.988z"/>
</svg>
