<svg xmlns="http://www.w3.org/2000/svg" viewBox="0 0 64 32" width="64" height="32" role="img">
  <title>Fox Business</title>
  <path fill="#999" d="M63.678 24.713v1.717H57.8l-.056.006c-.183.028-.278.21-.278.55v.094c.017.3.128.45.328.45h4.278l.139.006c.5.033.922.26 1.267.678l.089.122c.283.41.428.894.428 1.456l-.006.167a2.459 2.459 0 0 1-.511 1.417l-.094.11a1.712 1.712 0 0 1-1.311.573h-5.878v-1.717h5.878l.056-.006c.183-.028.272-.211.272-.544v-.094c-.017-.3-.128-.45-.328-.45H57.8l-.139-.006c-.506-.033-.922-.261-1.261-.683l-.094-.117c-.294-.406-.439-.89-.439-1.45l.006-.167a2.447 2.447 0 0 1 .533-1.433l.094-.106c.35-.378.783-.561 1.3-.561h5.878v-.012zm-8.967 0v1.717h-5.878l-.056.006c-.183.028-.278.21-.278.55v.094c.017.3.128.45.328.45h4.278l.139.006c.506.033.922.26 1.267.678l.089.122c.283.41.428.894.428 1.456l-.006.167a2.459 2.459 0 0 1-.511 1.417l-.094.11a1.712 1.712 0 0 1-1.311.573h-5.872v-1.717h5.878l.056-.006c.183-.028.272-.211.272-.544v-.094c-.017-.3-.128-.45-.328-.45h-4.278l-.139-.006c-.5-.033-.922-.261-1.261-.683l-.094-.117c-.294-.406-.433-.89-.433-1.45l.006-.167a2.447 2.447 0 0 1 .533-1.433l.094-.106c.35-.378.783-.561 1.3-.561h5.872v-.012zm-8.828 0v1.717h-5.678v1.094h5.306v1.71h-5.306v1.095h5.661v1.717h-7.25v-7.333h7.267zm-13.966 0 4.089 4.906v-4.906h1.589v7.333h-1.589l-4.089-4.933v4.933h-1.583v-7.333h1.583zm-2.6 0v7.333h-1.594v-7.333h1.594zm-2.75 0v1.717h-5.878l-.056.006c-.183.028-.278.21-.278.55v.094c.017.3.128.45.328.45h4.278l.139.006c.5.033.922.26 1.267.678l.089.122c.283.41.428.894.428 1.456l-.006.167a2.459 2.459 0 0 1-.511 1.417l-.094.11a1.72 1.72 0 0 1-1.311.573H19.09v-1.717h5.878l.056-.006c.183-.028.272-.211.272-.544v-.094c-.017-.3-.128-.45-.328-.45H20.69l-.139-.006c-.506-.033-.922-.261-1.267-.683l-.094-.117c-.294-.406-.439-.89-.439-1.45l.006-.167a2.446 2.446 0 0 1 .539-1.433l.094-.106c.35-.378.778-.561 1.3-.561h5.878v-.012zm-15.606 0V29.869c.017.31.133.467.344.467H15.8l.056-.006c.189-.028.278-.211.278-.55v-5.067h1.6v5.067l-.006.167a2.416 2.416 0 0 1-.539 1.433l-.094.106a1.685 1.685 0 0 1-1.295.566h-4.494l-.139-.006c-.511-.033-.928-.256-1.256-.667l-.094-.122a2.51 2.51 0 0 1-.444-1.472v-5.067h1.589v-.005zm-4.478 0 .15.006c.533.033.961.239 1.283.622l.089.117c.256.356.383.783.383 1.278l-.006.156c-.033.61-.267 1.089-.7 1.439l.106.078c.483.367.728.91.728 1.617l-.006.16a2.014 2.014 0 0 1-.483 1.234l-.089.1c-.344.35-.789.528-1.339.528H0v-7.333l6.483-.002zm.123 4.528H1.589v1.094h5.017l.056-.006c.194-.028.289-.211.289-.544l-.006-.094c-.012-.3-.128-.45-.339-.45zm-.123-2.811H1.589v1.117h4.894l.056-.006c.194-.028.289-.211.289-.556v-.09c-.017-.31-.134-.465-.345-.465zM61.333.046 64 23.38h-2.872L54.667.046h6.666zm-8 3.334 6.972 20H56l-7.333-12.667 4.666-7.333zM40.667.046l2.667 5.333L46 .046h7.333l-6.666 10.667 6.667 10.672h-6.667l-3.334-5.333-2.667 5.333h-7.333l6-10.672-6-10.667h7.334zm-15.639 0c6.344 0 11.489 4.744 11.489 10.806 0 5.644-5.144 10.389-11.489 10.389s-11.489-4.745-11.489-10.39c0-6.055 5.144-10.805 11.489-10.805zm-11.361 0 .333 6H6v2h6.667v6H6v6.667H0V.046h13.667zM25 4.713c-.883 0-1.606.689-1.661 1.556l-.006.11v8.668a1.665 1.665 0 0 0 3.328.11l.006-.11V6.38c0-.917-.745-1.667-1.667-1.667z"/>↩
  <path fill="#999" d="M0 22.046v1.334h54.667L54 22.046z"/>
</svg>