<svg xmlns="http://www.w3.org/2000/svg" viewBox="0 0 93 32" width="93" height="32" role="img">
  <title>Inc.</title>
  <path fill="#999" d="M.205 7.368h4.084v17.221H.205v6.822h21.853v-6.822h-4.126V7.368h4.126V0H.205zM55.7 24.589v-9.053c0-5.768-4.211-7.874-9.432-7.874-3.705 0-6.526 1.011-8.968 3.832a4.59 4.59 0 0 1-.632.674V7.411H23.195v6.863h3.074V24.59h-3.074v6.863H40.29V24.59h-3.242v-5.937c0-2.526 1.895-4.379 4.421-4.379 1.979 0 3.537.968 3.537 3.116v7.158h-3.158v6.863h16.716v-6.737c0-.042-.042-.084-.042-.126H55.7v.041z"/>
  <path fill="#999" d="M85.763 22.568h-9.179c0 2.526-1.853 3.705-3.916 3.705-3.958 0-4.295-3.326-4.295-6.484v-.084c0-3.158.295-6.484 4.295-6.484 3.116 0 3.663 2.695 3.747 5.263l9.221-1.011c-.968-9.389-10.232-9.979-12.547-9.979h-.505c-7.621 0-15.116 3.747-15.116 12.253 0 1.811.337 3.411.968 4.8h.042v.126C60.753 29.726 66.647 32 72.584 32c4.842 0 11.621-1.179 13.137-8.632l.042-.8z"/>
  <circle fill="#999" cx="88.921" cy="27.663" r="3.874"/>
</svg>
