<svg xmlns="http://www.w3.org/2000/svg" xml:space="preserve" viewBox="0 0 186 32" width="186" height="32" role="img">
  <title>Le Monde .fr</title>
  <path fill="#999" d="M28.58 16.727 27.138 15.1l.041 1.086.764.917.637-.376M13.565 31.44c-.638-1.295-2.154-2.084-3.936-2.084-.17.041-.335.041-.509.041 1.738.292 3.221 1.25 3.77 2.46l.675-.417zm5.925-3.664-.505-1.003-1.314.834c-.974-1.173-2.539-2.545-6.261-2.545-3.936-.041-8.765 3.044-10.964 5.711l.376.501c3.007-1.963 6.098-2.833 8.806-2.833 2.199 0 4.021 1.041 4.785 2.582l5.077-3.247zM7.979 21.519c.081-1.708-.295-3.793-.675-5.794-.384-2.042-.724-4.124-.683-5.956.044-1.127.255-2.212.72-3.207-.801 1.203-1.306 2.578-1.351 4.04-.128 3.54 1.606 8.165 1.439 11.754a96.58 96.58 0 0 1-.126 1.457l.081-.089c.34-.453.551-1.161.595-2.205zm18.026 10.006-4.239-2.752c-.509-.332-1.099-.96-1.099-2.125v-9.961l-.424.251-.166.081v9.917c0 .838.461 1.711 1.096 2.125l4.279 2.797.553-.333zm-2.45-26.593c-.764-1.167-2.797-3.335-6.818-3.335-4.821-.039-9.053 3.669-9.223 8.171-.129 3.582 1.605 8.208 1.436 11.794-.081 1.206-.339 2.081-.845 2.752l.505.579 2.967-2.125c1.438-1.041 2.243-2.336 2.202-4.585-.044-2.791-1.358-7.081-1.358-10.372 0-2.839 1.099-4.962 3.6-4.962 1.693 0 3.048 1.709 3.257 2.665.085.457 0 .67-.42.961l-1.186.795v1.285l5.883-3.623zM34.46 16.02l-5.67-6.168-8.85 5.082v1.167l1.819-1.002v11.548c0 .664.258 1.081.683 1.376l4.697 3 6.644-3.793-.55-1.165-3.472 1.83-3.128-2.125c-.383-.247-.424-.498-.424-1.041v-3.751l8.251-4.958zM18.56 5.685c-.129-.583-1.144-1.92-2.284-1.92-.258 0-.424.044-.598.087 1.103.415 1.947 1.496 2.202 2.251l.635-.376v-.041l.045-.001zm11.459 11.252-3.811 2.336v-6.089l.339-.209 3.472 3.962zM47.727 31.775c-.332-1.084-1.351-2.007-3.128-2.254.258-.041.505-.041.764-.041 2.199.041 2.833 1.372 2.959 1.793l.044.122-.639.38m1.527-.797c-.42-1.165-1.653-2.376-3.851-2.457-2.077-.041-5.043.753-7.497 2.59l-.461-.59c1.778-1.918 5.924-4.999 10.282-5.04 2.291 0 3.896.749 5.04 1.955l1.908-1.041.55 1.084-5.971 3.499zm-2.283-7.747c.211-.668.295-1.42.295-2.21V8.891c0-1.455-.085-1.62-.59-2.079h.081c.72-.129 1.099 0 1.099 1.247v12.169c0 1.417-.254 2.335-.885 3.003zM40.36 3.186c-.335.958-.292 1.874.133 2.623.383.668 1.059 1.127 1.863 1.334-2.502.21-3.597-1.751-1.996-3.957zm17.232 28.463s-.126.081-.211.126h-.339V8.52c0-1.127-.085-1.127-.764-1.627l-.966-.749.631-.335c.505.415 1.273 1.003 1.273 1.041.295.294.376.461.376 1.129v23.709-.039zM75.37 5.433c-1.653.961-2.203 2.252-2.203 4.251v15.959c0 1.003.129 1.461.679 1.752l.55.292 1.523-.878.509 1.003-5.294 3.128-1.815-1.21c-.808-.546-1.151-1.21-1.151-2.501V12.975c0-2.663.852-4.084 2.036-4.958l.675-.498-4.991-2.876-2.243 1.33v20.756c0 1.752-.255 1.999-1.823 2.793 0 0-1.224.586-2.914 1.457h-.339V7.978c0-1.129-.133-1.378-.764-1.876l-1.778-1.417-2.162 1.206v11.924c0 2.081-.335 3.578-2.029 4.623l-4.235 2.623-.42-.705c1.31-1 1.608-2.417 1.608-4.084V8.1c0-1.793-.255-2.498-2.162-2.164-.716.122-1.815.288-2.491.371-2.8.376-3.981-1.581-2.081-4.041 0 0 .465-.623 1.653-2.123l.933.625-.678.957c-.889 1.252-.174 1.92 1.269 1.415.679-.247 1.988-.745 2.918-1.123 4.021-1.54 5.504 1.002 5.715 2.503l4.999-2.961 4.311 3.248 5.334-3.248 4.106 2.293c1.395.791 2.073.457 3.048-.043l.805-.417.635 1.043-1.733.998zm-5.759 26.342-1.479-1.003c-.974-.664-1.483-1.793-1.483-3.044V13.811c0-1.916.428-3.25 1.103-4.167-.383.917-.55 2.042-.55 3.331l.041 14.255c0 1.542.465 2.539 1.564 3.29l1.354.919-.55.336zm-.845-23.758-3.387-1.959.509-.332 3.257 1.876c-.124.127-.254.248-.379.415zM87.736 26.23v-9.503c0-.498-.166-.666-.553-.875l-1.985-1.165v.625l1.144.623c.841.459.841.54.841 1.419l-.041 8.541.594.335m-2.623 5.338-4.866-2.882c-.978-.583-1.361-1.291-1.361-2.541v-9.418l-.42.211-.174.081v9.584c0 1.125.513 1.959 1.405 2.457l4.862 2.797.554-.289zm9.857-5.673-.376-.915-1.483.749V14.436c0-.581-.207-1.041-.801-1.376l-5.464-3.207-8.85 5.082v1.21l1.823-1.044v11.045c0 1 .255 1.376.889 1.749l5.375 3.128 8.887-5.128zm3.549 5.791V14.727l-.55-.625-.679.38.635.705v16.588h.343c.081-.044.214-.089.214-.089h.037zm11.854-.206-1.269-.745c-1.144-.671-1.738-1.711-1.738-3.298V16.144c0-.668-.037-.623-.295-.832 0 0-.886-.712-1.479-1.169l-.638.339 1.232.911c.675.498.594.542.594 1.544v10.957c0 1.502.631 2.545 1.52 3.048l1.523.834.55-.296zm5.588-3.21-.424-.96-1.564.878-.55-.332c-.594-.335-.72-.753-.72-1.752V14.142c0-.96-.214-1.374-.808-1.79l-3.261-2.42-5.036 2.835-2.667-2.835-5.331 3.211.723.83 1.819-1.079 1.306 1.457V30.94h.339c2.121-.919 2.796-1.21 2.796-1.21 1.014-.42 1.317-.753 1.317-1.918V13.974l1.734-1 2.032 1.589c.55.453.631.83.631 1.538l.044 11.335c0 1.25.376 1.959 1.225 2.46l1.778 1.044 4.617-2.67zm-27.295-.623-.255.041-3.468-1.999c-.594-.332-.72-.708-.72-1.457l.041-10.964.251-.083 3.346 1.916c.679.376.805.712.805 1.42v11.126zM126.321 26.145V12.934l-.59.378v12.456l.59.377m17.738-9.418-1.442-1.627.044 1.086.764.917.634-.376zm-16.808 10.92-.255.041-3.003-1.918c-.59-.373-.801-.664-.801-1.413V13.728l3.763-2.254.295.168v16.006h.001zm-3.549 3.878-4.579-2.837c-1.099-.664-1.306-1.291-1.306-2.498v-8.961l-.347.166-.247.126v8.876c0 1.417.461 2.044 1.181 2.501l4.741 2.959.557-.332zm9.82-5.587-.383-.96-1.527.79V8.1c0-2.584-1.181-4.248-3.128-5.417l-1.904-1.167-5.969 3.418 1.184.546 1.951-1.044 1.266.708c1.351.749 2.239 2.251 2.239 3.791V9.6l-10.242 5.833v1.127l1.734-.917v10.586c0 .915.255 1.291.848 1.664l5.08 3.128 8.851-5.083zm8.213 5.587-4.275-2.752c-.505-.332-1.099-.96-1.099-2.125v-9.961l-.424.251-.17.081v9.791c0 1.084.424 1.837 1.144 2.295l4.231 2.752.593-.332zM126.321 9.06v-.127c0-1.167-.72-2.372-1.819-2.998-.424-.251-.801-.457-.801-.457l-.509.331.292.164c1.442.793 2.247 1.793 2.247 3.42l.59-.333zm23.663 6.96-5.715-6.168-8.847 5.082v1.167l1.819-1.002v11.548c0 .664.258 1.081.679 1.376l4.697 3 6.644-3.793-.502-1.165-3.476 1.83-3.132-2.125c-.428-.288-.468-.498-.468-1.041v-3.751l8.301-4.958zm-4.49.917-3.811 2.336v-6.089l.383-.209 3.428 3.962z"/>
  <path fill="#999" d="M155.802 31.295c-1.715 0-3.213-1.438-3.213-3.121 0-1.726 1.42-3.128 3.169-3.128 1.796 0 3.18 1.365 3.18 3.091-.001 1.72-1.417 3.158-3.136 3.158M179.199 14.126h-.114v-2.889h-10.507V10.14c0-.492-.28-3.427 2.147-3.929 1.107-.227 2.048.371 2.63.845l4.235-2.677c-1.705-1.883-4.221-2.442-6.39-2.315-1.538.093-7.685.991-7.685 7.66l.025 1.525-2.796-.013-1.461 1.402h4.231V31.1h5.061V12.639h5.434l.015 18.461h5.057V20.494c.093-3.29 1.125-5.359 6.305-5.53l.168-4.448c-3.555.223-5.4 2.079-6.355 3.61"/>
</svg>
